<svg xmlns="http://www.w3.org/2000/svg" viewBox="0 0 150 146" fill="none">
  <defs>
    <linearGradient id="glass1" x1="0%" y1="0%" x2="100%" y2="100%">
      <stop offset="0%" stop-color="#a98fff" stop-opacity="0.7"/>
      <stop offset="50%" stop-color="#7d5fff" stop-opacity="0.4"/>
      <stop offset="100%" stop-color="#2f1b72" stop-opacity="0.15"/>
    </linearGradient>
    <linearGradient id="glass2" x1="0%" y1="100%" x2="100%" y2="0%">
      <stop offset="0%" stop-color="#7aeeff" stop-opacity="0.65"/>
      <stop offset="50%" stop-color="#29dfff" stop-opacity="0.35"/>
      <stop offset="100%" stop-color="#0ab3d6" stop-opacity="0.12"/>
    </linearGradient>
    <linearGradient id="glass3" x1="100%" y1="0%" x2="0%" y2="100%">
      <stop offset="0%" stop-color="#6bb8ff" stop-opacity="0.6"/>
      <stop offset="50%" stop-color="#188bff" stop-opacity="0.3"/>
      <stop offset="100%" stop-color="#0a5eb8" stop-opacity="0.1"/>
    </linearGradient>
    <linearGradient id="shine" x1="0%" y1="0%" x2="60%" y2="60%">
      <stop offset="0%" stop-color="#ffffff" stop-opacity="0.4"/>
      <stop offset="40%" stop-color="#ffffff" stop-opacity="0.1"/>
      <stop offset="100%" stop-color="#ffffff" stop-opacity="0"/>
    </linearGradient>
    <filter id="glow" x="-30%" y="-30%" width="160%" height="160%">
      <feGaussianBlur stdDeviation="2" result="blur"/>
      <feMerge><feMergeNode in="blur"/><feMergeNode in="SourceGraphic"/></feMerge>
    </filter>
  </defs>

  <!-- Original logo arrangement - 6 shapes in circular pattern -->

  <!-- Shape 1: Blue curve - top left -->
  <g filter="url(#glow)" class="logo-shape-1">
    <path d="M28.46 49.14a38.63 38.63 0 0 1-18.11-5.65c-2.15-1.31-3-2.6-1.37-5a82.06 82.06 0 0 0 4.4-7.18c1.51-2.7 3.12-3 5.92-1.39 9.61 5.52 19.13 4 26.6-4.14 5-5.42 6-11.93 4.34-18.8-.74-3.08.14-4.31 3-4.91C55.11 1.71 57 1.05 58.88.59c5.4-1.29 6.21-.76 7.27 4.51 4.57 22.83-12.93 44.08-37.69 44.04z" fill="url(#glass3)"/>
    <path d="M28.46 49.14a38.63 38.63 0 0 1-18.11-5.65c-2.15-1.31-3-2.6-1.37-5a82.06 82.06 0 0 0 4.4-7.18c1.51-2.7 3.12-3 5.92-1.39 9.61 5.52 19.13 4 26.6-4.14 5-5.42 6-11.93 4.34-18.8-.74-3.08.14-4.31 3-4.91C55.11 1.71 57 1.05 58.88.59c5.4-1.29 6.21-.76 7.27 4.51 4.57 22.83-12.93 44.08-37.69 44.04z" fill="url(#shine)"/>
  </g>

  <!-- Shape 2: Cyan curve - top right -->
  <g filter="url(#glow)" class="logo-shape-2">
    <path d="M120.47 49.1c-23.62-.62-40.9-20.87-35.89-45C85.44 0 86.32-.52 90.44.38c2.51.55 5 1.32 7.47 1.94s3 1.84 2.44 4.31c-3 13.7 4.4 24.47 18.15 26.5a19 19 0 0 0 13.27-3.24c2.28-1.47 3.76-1.21 5.1 1.06q2.24 3.78 4.64 7.47c1.5 2.32.64 3.68-1.51 5a39.74 39.74 0 0 1-19.53 5.68z" fill="url(#glass2)"/>
    <path d="M120.47 49.1c-23.62-.62-40.9-20.87-35.89-45C85.44 0 86.32-.52 90.44.38c2.51.55 5 1.32 7.47 1.94s3 1.84 2.44 4.31c-3 13.7 4.4 24.47 18.15 26.5a19 19 0 0 0 13.27-3.24c2.28-1.47 3.76-1.21 5.1 1.06q2.24 3.78 4.64 7.47c1.5 2.32.64 3.68-1.51 5a39.74 39.74 0 0 1-19.53 5.68z" fill="url(#shine)"/>
  </g>

  <!-- Shape 3: Purple left side -->
  <g filter="url(#glow)" class="logo-shape-3">
    <path d="M39.08 99.48a37.9 37.9 0 0 1-12.91 26.64c-2 1.81-3.68 1.52-5.3-.41-.71-.84-1.38-1.71-2.1-2.54-5.35-6.17-5.26-6.1-.2-12.27 4.91-6 5.66-12.92 3.13-20-2.83-8-8.88-12.54-17.18-13.53C.73 76.91-.3 75.4.07 72c.2-1.82.09-3.67.32-5.47.66-5.06 1.31-5.53 6.31-4.88C25.2 64 39 79.69 39.08 99.48z" fill="url(#glass1)"/>
    <path d="M39.08 99.48a37.9 37.9 0 0 1-12.91 26.64c-2 1.81-3.68 1.52-5.3-.41-.71-.84-1.38-1.71-2.1-2.54-5.35-6.17-5.26-6.1-.2-12.27 4.91-6 5.66-12.92 3.13-20-2.83-8-8.88-12.54-17.18-13.53C.73 76.91-.3 75.4.07 72c.2-1.82.09-3.67.32-5.47.66-5.06 1.31-5.53 6.31-4.88C25.2 64 39 79.69 39.08 99.48z" fill="url(#shine)"/>
  </g>

  <!-- Shape 4: Cyan right side -->
  <g filter="url(#glow)" class="logo-shape-4">
    <path d="M111.88 93.59c0-14.15 14.18-30 32.63-31.92 4.07-.43 5 .31 5.51 4.33a10 10 0 0 1 .08 1.09c0 2.8.59 5.85-.33 8.33-1.08 2.88-4.73 1.7-7.18 2.43-15.19 4.49-20.19 24-8.89 35.13 3.66 3.62 3.66 3.62.27 7.56-.48.56-1 1.08-1.47 1.64-5.42 6.52-5.49 6.59-11.14.5-6.42-6.92-9.65-15.15-9.48-29.09z" fill="url(#glass2)"/>
    <path d="M111.88 93.59c0-14.15 14.18-30 32.63-31.92 4.07-.43 5 .31 5.51 4.33a10 10 0 0 1 .08 1.09c0 2.8.59 5.85-.33 8.33-1.08 2.88-4.73 1.7-7.18 2.43-15.19 4.49-20.19 24-8.89 35.13 3.66 3.62 3.66 3.62.27 7.56-.48.56-1 1.08-1.47 1.64-5.42 6.52-5.49 6.59-11.14.5-6.42-6.92-9.65-15.15-9.48-29.09z" fill="url(#shine)"/>
  </g>

  <!-- Shape 5: Purple smile - center top -->
  <g filter="url(#glow)" class="logo-shape-5">
    <path d="M75.79 99.76a36.88 36.88 0 0 1-35.55-25.13c-1.07-3.18-.53-4.74 3-5.27 2.9-.44 5.72-1.32 8.57-2 2-.49 3 .08 3.82 2.16 3.43 9 10.41 13.93 19.47 14 9.36.07 16-4.55 19.77-14 .89-2.23 2.08-2.69 4.2-2.14 2.84.74 5.72 1.34 8.57 2 4.15 1 4.3 1.33 2.88 5.51a37.15 37.15 0 0 1-34.73 24.87z" fill="url(#glass1)"/>
    <path d="M75.79 99.76a36.88 36.88 0 0 1-35.55-25.13c-1.07-3.18-.53-4.74 3-5.27 2.9-.44 5.72-1.32 8.57-2 2-.49 3 .08 3.82 2.16 3.43 9 10.41 13.93 19.47 14 9.36.07 16-4.55 19.77-14 .89-2.23 2.08-2.69 4.2-2.14 2.84.74 5.72 1.34 8.57 2 4.15 1 4.3 1.33 2.88 5.51a37.15 37.15 0 0 1-34.73 24.87z" fill="url(#shine)"/>
  </g>

  <!-- Shape 6: Purple bottom -->
  <g filter="url(#glow)" class="logo-shape-6">
    <path d="M110 138.38c.13 2.07-1.09 2.73-2.34 3.27-2.7 1.15-5.46 2.15-8.16 3.31-2.52 1.09-3.86.48-5.07-2.15-6-13.16-21.77-16.63-32.89-7.44a19.24 19.24 0 0 0-5.66 8c-.8 2-2 2.6-4 1.78-2.83-1.15-5.68-2.27-8.53-3.35-2.65-1-3-2.59-1.94-5.17a37 37 0 0 1 67.5-1c.49 1 .81 2.06 1.09 2.75z" fill="url(#glass1)"/>
    <path d="M110 138.38c.13 2.07-1.09 2.73-2.34 3.27-2.7 1.15-5.46 2.15-8.16 3.31-2.52 1.09-3.86.48-5.07-2.15-6-13.16-21.77-16.63-32.89-7.44a19.24 19.24 0 0 0-5.66 8c-.8 2-2 2.6-4 1.78-2.83-1.15-5.68-2.27-8.53-3.35-2.65-1-3-2.59-1.94-5.17a37 37 0 0 1 67.5-1c.49 1 .81 2.06 1.09 2.75z" fill="url(#shine)"/>
  </g>
</svg>
