<?xml version="1.0" encoding="UTF-8" standalone="no"?>
<!DOCTYPE svg PUBLIC "-//W3C//DTD SVG 1.1//EN" "http://www.w3.org/Graphics/SVG/1.1/DTD/svg11.dtd">
<svg width="100%" height="100%" viewBox="0 0 354 343" version="1.1" xmlns="http://www.w3.org/2000/svg" xmlns:xlink="http://www.w3.org/1999/xlink" xml:space="preserve" xmlns:serif="http://www.serif.com/" style="fill-rule:evenodd;clip-rule:evenodd;stroke-linejoin:round;stroke-miterlimit:2;">
    <g transform="matrix(1,0,0,1,-223.192,-128.815)">
        <g transform="matrix(1,0,0,1,223.193,122.937)">
            <g>
                <g>
                    <g>
                        <path d="M178.329,240.612C140.648,241.215 106.684,217.206 94.682,181.482C92.165,174 93.435,170.329 101.741,169.082C108.565,168.047 115.2,165.976 121.906,164.376C126.612,163.224 128.965,164.565 130.894,169.459C138.965,190.635 155.388,202.235 176.706,202.4C198.729,202.565 214.353,191.694 223.224,169.459C225.318,164.212 228.118,163.129 233.106,164.424C239.788,166.165 246.565,167.576 253.271,169.129C263.035,171.482 263.388,172.259 260.047,182.094C247.896,216.793 215.093,240.283 178.329,240.612Z" style="fill:rgb(47,27,114);fill-rule:nonzero;"/>
                        <path d="M66.965,121.506C51.877,120.685 37.23,116.116 24.353,108.212C19.294,105.129 17.294,102.094 21.129,96.447C24.867,90.997 28.323,85.358 31.482,79.553C35.035,73.2 38.824,72.494 45.412,76.282C68.024,89.271 90.424,85.694 108,66.541C119.765,53.788 122.118,38.471 118.212,22.306C116.471,15.059 118.541,12.165 125.271,10.753C129.671,9.906 134.118,8.353 138.541,7.271C151.247,4.235 153.153,5.482 155.647,17.882C166.4,71.6 125.224,121.6 66.965,121.506Z" style="fill:rgb(24,139,255);fill-rule:nonzero;"/>
                        <path d="M283.459,121.412C227.882,119.953 187.224,72.306 199.012,15.529C201.035,5.882 203.106,4.659 212.8,6.776C218.706,8.071 224.565,9.882 230.376,11.341C236.188,12.8 237.435,15.671 236.118,21.482C229.059,53.718 246.471,79.059 278.824,83.835C289.813,85.252 300.947,82.534 310.047,76.212C315.412,72.753 318.894,73.365 322.047,78.706C325.561,84.635 329.2,90.494 332.965,96.282C336.494,101.741 334.471,104.941 329.412,108.047C315.514,116.412 299.675,121.019 283.459,121.412Z" style="fill:rgb(34,187,255);fill-rule:nonzero;"/>
                        <path d="M258.824,331.482C259.129,336.353 256.259,337.906 253.318,339.176C246.965,341.882 240.471,344.235 234.118,346.965C228.188,349.529 225.035,348.094 222.188,341.906C208.071,310.941 170.965,302.776 144.8,324.4C138.811,329.419 134.222,335.905 131.482,343.224C129.6,347.929 126.776,349.341 122.071,347.412C115.412,344.706 108.706,342.071 102,339.529C95.765,337.176 94.941,333.435 97.435,327.365C111.173,295.515 142.689,274.785 177.375,274.785C211.135,274.785 241.976,294.422 256.259,325.012C257.412,327.365 258.165,329.859 258.824,331.482Z" style="fill:rgb(171,82,255);fill-rule:nonzero;"/>
                        <path d="M91.953,239.953C90.744,264.091 79.773,286.73 61.576,302.635C56.871,306.894 52.918,306.212 49.106,301.671C47.435,299.694 45.859,297.647 44.165,295.694C31.576,281.176 31.788,281.341 43.694,266.824C55.247,252.706 57.012,236.424 51.059,219.765C44.4,200.941 30.165,190.259 10.635,187.929C1.718,186.847 -0.706,183.294 0.165,175.294C0.635,171.012 0.376,166.659 0.918,162.424C2.471,150.518 4,149.412 15.765,150.941C59.294,156.471 91.765,193.388 91.953,239.953Z" style="fill:rgb(125,95,255);fill-rule:nonzero;"/>
                        <path d="M263.247,226.094C263.247,192.8 296.612,155.506 340.024,150.988C349.6,149.976 351.788,151.718 352.988,161.176C353.098,162.027 353.161,162.883 353.176,163.741C353.176,170.329 354.565,177.506 352.4,183.341C349.859,190.118 341.271,187.341 335.506,189.059C299.765,199.624 288,245.529 314.588,271.718C323.2,280.235 323.2,280.235 315.224,289.506C314.094,290.824 312.871,292.047 311.765,293.365C299.012,308.706 298.847,308.871 285.553,294.541C270.447,278.259 262.847,258.894 263.247,226.094Z" style="fill:rgb(41,223,255);fill-rule:nonzero;"/>
                    </g>
                </g>
            </g>
        </g>
    </g>
</svg>
